<svg id="visual" viewBox="0 0 900 600" width="900" height="600" xmlns="http://www.w3.org/2000/svg" xmlns:xlink="http://www.w3.org/1999/xlink" version="1.1"><rect x="0" y="0" width="900" height="600" fill="#001220"></rect><defs><linearGradient id="grad1_0" x1="33.3%" y1="0%" x2="100%" y2="100%"><stop offset="20%" stop-color="#001220" stop-opacity="1"></stop><stop offset="80%" stop-color="#001220" stop-opacity="1"></stop></linearGradient></defs><defs><linearGradient id="grad2_0" x1="0%" y1="0%" x2="66.7%" y2="100%"><stop offset="20%" stop-color="#001220" stop-opacity="1"></stop><stop offset="80%" stop-color="#001220" stop-opacity="1"></stop></linearGradient></defs><g transform="translate(900, 0)"><path d="M0 459.7C-50.5 457.5 -100.9 455.2 -140.6 432.7C-180.3 410.2 -209.1 367.5 -245.7 338.2C-282.3 308.8 -326.6 292.9 -361.6 262.7C-396.7 232.6 -422.4 188.2 -437.2 142.1C-452 95.9 -455.9 47.9 -459.7 0L0 0Z" fill="#0066FF"></path></g><g transform="translate(0, 600)"><path d="M0 -459.7C41.5 -437 83 -414.2 131.3 -404.2C179.7 -394.2 234.9 -396.9 270.2 -371.9C305.5 -346.9 321 -294.2 347.9 -252.7C374.8 -211.3 413.1 -181.2 433.7 -140.9C454.2 -100.7 457 -50.3 459.7 0L0 0Z" fill="#0066FF"></path></g></svg>